<svg width="440" height="440" viewBox="0 0 440 440" fill="none" xmlns="http://www.w3.org/2000/svg">
<circle cx="220" cy="220" r="220" fill="#C6C6C6"/>
<circle cx="220.5" cy="220.5" r="156" stroke="#606060" stroke-width="5"/>
<rect width="383" height="72" transform="translate(29 184)" fill="#C6C6C6"/>
<path d="M33.3867 240V202.855H41.7613V217.155H54.5797V202.855H63.0113V240H54.5797V224.504H41.7613V240H33.3867ZM79.5798 240.684C76.5034 240.684 74.2626 239.677 72.8573 237.664C71.49 235.613 70.8064 232.822 70.8064 229.29V211.743H79.181V228.207C79.181 230.22 79.4659 231.625 80.0356 232.423C80.6053 233.183 81.4978 233.562 82.7132 233.562C83.7766 233.562 84.6692 233.315 85.3908 232.822C86.1124 232.328 86.891 231.53 87.7266 230.429V211.743H96.1012V240H89.2648L88.6381 236.069H88.4672C87.2898 237.474 85.9985 238.595 84.5932 239.43C83.1879 240.266 81.5168 240.684 79.5798 240.684ZM103.471 240V211.743H110.307L110.877 215.332H111.105C112.32 214.192 113.65 213.205 115.093 212.369C116.574 211.496 118.264 211.059 120.163 211.059C123.24 211.059 125.461 212.085 126.829 214.135C128.234 216.148 128.937 218.921 128.937 222.453V240H120.562V223.536C120.562 221.485 120.277 220.079 119.707 219.32C119.176 218.56 118.302 218.18 117.087 218.18C116.023 218.18 115.112 218.427 114.352 218.921C113.593 219.377 112.757 220.041 111.845 220.915V240H103.471ZM146.157 252.021C143.954 252.021 141.96 251.774 140.175 251.28C138.39 250.786 136.966 250.008 135.902 248.944C134.839 247.881 134.307 246.514 134.307 244.842C134.307 242.564 135.655 240.665 138.352 239.145V238.918C137.63 238.424 137.003 237.797 136.472 237.038C135.978 236.278 135.731 235.309 135.731 234.132C135.731 233.107 136.035 232.119 136.643 231.17C137.25 230.22 138.01 229.442 138.921 228.834V228.606C137.934 227.922 137.041 226.935 136.244 225.643C135.484 224.352 135.104 222.89 135.104 221.257C135.104 218.978 135.655 217.098 136.757 215.617C137.858 214.098 139.301 212.958 141.086 212.199C142.871 211.439 144.77 211.059 146.783 211.059C148.455 211.059 149.917 211.287 151.17 211.743H161.482V217.839H156.981C157.247 218.256 157.456 218.788 157.608 219.434C157.798 220.079 157.893 220.782 157.893 221.542C157.893 223.706 157.399 225.492 156.411 226.897C155.424 228.302 154.095 229.347 152.423 230.03C150.752 230.714 148.872 231.056 146.783 231.056C145.682 231.056 144.543 230.866 143.365 230.486C142.682 231.056 142.34 231.758 142.34 232.594C142.34 233.315 142.663 233.847 143.308 234.189C143.954 234.531 145.055 234.702 146.612 234.702H151.17C154.664 234.702 157.323 235.271 159.146 236.411C161.007 237.512 161.937 239.335 161.937 241.88C161.937 243.817 161.292 245.545 160 247.064C158.709 248.622 156.886 249.837 154.531 250.71C152.177 251.584 149.385 252.021 146.157 252.021ZM146.783 225.985C147.885 225.985 148.796 225.587 149.518 224.789C150.278 223.991 150.657 222.814 150.657 221.257C150.657 219.776 150.278 218.655 149.518 217.896C148.796 217.098 147.885 216.699 146.783 216.699C145.682 216.699 144.751 217.079 143.992 217.839C143.27 218.598 142.909 219.738 142.909 221.257C142.909 222.814 143.27 223.991 143.992 224.789C144.751 225.587 145.682 225.985 146.783 225.985ZM147.467 246.779C149.366 246.779 150.923 246.438 152.139 245.754C153.354 245.07 153.962 244.254 153.962 243.304C153.962 242.431 153.582 241.842 152.822 241.538C152.101 241.234 151.037 241.082 149.632 241.082H146.726C145.777 241.082 144.979 241.044 144.334 240.968C143.726 240.931 143.194 240.855 142.738 240.741C141.713 241.652 141.2 242.583 141.2 243.532C141.2 244.596 141.77 245.393 142.909 245.925C144.087 246.495 145.606 246.779 147.467 246.779ZM178.151 240.684C175.455 240.684 173.024 240.095 170.859 238.918C168.694 237.74 166.985 236.05 165.732 233.847C164.478 231.644 163.852 228.986 163.852 225.871C163.852 222.795 164.478 220.155 165.732 217.953C167.023 215.75 168.694 214.06 170.745 212.882C172.796 211.667 174.942 211.059 177.183 211.059C179.879 211.059 182.101 211.667 183.848 212.882C185.633 214.06 186.963 215.674 187.836 217.725C188.748 219.738 189.204 222.035 189.204 224.618C189.204 225.34 189.166 226.061 189.09 226.783C189.014 227.467 188.938 227.979 188.862 228.321H171.942C172.321 230.372 173.176 231.891 174.505 232.879C175.835 233.828 177.43 234.303 179.291 234.303C181.304 234.303 183.336 233.676 185.387 232.423L188.178 237.493C186.735 238.481 185.121 239.259 183.336 239.829C181.551 240.399 179.822 240.684 178.151 240.684ZM171.885 222.795H182.082C182.082 221.238 181.702 219.965 180.943 218.978C180.221 217.953 179.025 217.44 177.354 217.44C176.062 217.44 174.904 217.896 173.879 218.807C172.853 219.681 172.188 221.01 171.885 222.795ZM194.99 240V211.743H201.827L202.397 216.699H202.624C203.65 214.8 204.884 213.395 206.328 212.483C207.771 211.534 209.214 211.059 210.657 211.059C211.455 211.059 212.12 211.116 212.651 211.23C213.183 211.306 213.639 211.439 214.019 211.629L212.651 218.864C212.158 218.712 211.664 218.598 211.17 218.522C210.714 218.446 210.183 218.408 209.575 218.408C208.511 218.408 207.391 218.807 206.214 219.605C205.074 220.364 204.125 221.694 203.365 223.593V240H194.99ZM214.823 228.549V222.624H228.837V228.549H214.823ZM245.511 240.684C243.08 240.684 240.649 240.228 238.218 239.316C235.826 238.405 233.68 237.076 231.781 235.328L236.566 229.574C237.896 230.714 239.377 231.644 241.01 232.366C242.643 233.088 244.219 233.448 245.739 233.448C247.486 233.448 248.777 233.126 249.613 232.48C250.486 231.834 250.923 230.961 250.923 229.859C250.923 228.682 250.429 227.827 249.442 227.296C248.492 226.726 247.201 226.099 245.568 225.416L240.725 223.365C239.472 222.833 238.275 222.13 237.136 221.257C235.997 220.345 235.066 219.225 234.344 217.896C233.623 216.566 233.262 215.009 233.262 213.224C233.262 211.173 233.813 209.312 234.914 207.641C236.054 205.97 237.611 204.64 239.586 203.653C241.599 202.665 243.896 202.172 246.479 202.172C248.606 202.172 250.733 202.59 252.86 203.425C254.987 204.261 256.848 205.476 258.443 207.071L254.17 212.369C252.955 211.42 251.739 210.698 250.524 210.205C249.309 209.673 247.96 209.407 246.479 209.407C245.036 209.407 243.878 209.711 243.004 210.318C242.168 210.888 241.751 211.705 241.751 212.768C241.751 213.908 242.282 214.762 243.346 215.332C244.447 215.902 245.795 216.509 247.391 217.155L252.176 219.092C254.417 220.003 256.202 221.257 257.531 222.852C258.861 224.447 259.525 226.555 259.525 229.176C259.525 231.227 258.975 233.126 257.873 234.873C256.772 236.62 255.177 238.025 253.088 239.088C250.999 240.152 248.473 240.684 245.511 240.684ZM274.414 240.684C270.92 240.684 268.413 239.677 266.894 237.664C265.413 235.651 264.672 233.012 264.672 229.745V218.294H260.798V212.085L265.128 211.743L266.097 204.223H273.047V211.743H279.826V218.294H273.047V229.631C273.047 231.227 273.37 232.385 274.015 233.107C274.699 233.79 275.592 234.132 276.693 234.132C277.149 234.132 277.605 234.075 278.06 233.961C278.554 233.847 278.991 233.714 279.371 233.562L280.681 239.658C279.959 239.886 279.067 240.114 278.003 240.342C276.978 240.57 275.781 240.684 274.414 240.684ZM291.35 240.684C288.768 240.684 286.717 239.867 285.198 238.234C283.678 236.563 282.919 234.531 282.919 232.138C282.919 229.176 284.172 226.859 286.679 225.188C289.185 223.517 293.23 222.396 298.813 221.826C298.738 220.573 298.358 219.586 297.674 218.864C297.028 218.104 295.927 217.725 294.37 217.725C293.192 217.725 291.996 217.953 290.781 218.408C289.565 218.864 288.274 219.491 286.907 220.288L283.887 214.762C285.672 213.661 287.571 212.768 289.584 212.085C291.635 211.401 293.762 211.059 295.965 211.059C299.573 211.059 302.346 212.104 304.283 214.192C306.22 216.281 307.188 219.491 307.188 223.82V240H300.352L299.782 237.095H299.554C298.377 238.158 297.104 239.032 295.737 239.715C294.408 240.361 292.946 240.684 291.35 240.684ZM294.199 234.189C295.148 234.189 295.965 233.98 296.649 233.562C297.37 233.107 298.092 232.518 298.813 231.796V226.84C295.851 227.22 293.8 227.827 292.661 228.663C291.521 229.46 290.952 230.41 290.952 231.511C290.952 232.423 291.236 233.107 291.806 233.562C292.414 233.98 293.211 234.189 294.199 234.189ZM324.152 240.684C320.658 240.684 318.151 239.677 316.632 237.664C315.151 235.651 314.41 233.012 314.41 229.745V218.294H310.536V212.085L314.866 211.743L315.834 204.223H322.785V211.743H329.564V218.294H322.785V229.631C322.785 231.227 323.107 232.385 323.753 233.107C324.437 233.79 325.329 234.132 326.431 234.132C326.886 234.132 327.342 234.075 327.798 233.961C328.292 233.847 328.729 233.714 329.108 233.562L330.419 239.658C329.697 239.886 328.804 240.114 327.741 240.342C326.716 240.57 325.519 240.684 324.152 240.684ZM335.08 240V211.743H343.454V240H335.08ZM339.238 207.584C337.833 207.584 336.694 207.185 335.82 206.388C334.947 205.59 334.51 204.527 334.51 203.197C334.51 201.868 334.947 200.804 335.82 200.007C336.694 199.209 337.833 198.81 339.238 198.81C340.644 198.81 341.783 199.209 342.657 200.007C343.53 200.804 343.967 201.868 343.967 203.197C343.967 204.527 343.53 205.59 342.657 206.388C341.783 207.185 340.644 207.584 339.238 207.584ZM362.959 240.684C360.566 240.684 358.306 240.114 356.179 238.975C354.091 237.797 352.4 236.107 351.109 233.904C349.818 231.663 349.172 228.986 349.172 225.871C349.172 222.719 349.818 220.041 351.109 217.839C352.4 215.636 354.091 213.965 356.179 212.825C358.306 211.648 360.566 211.059 362.959 211.059C365.352 211.059 367.592 211.648 369.681 212.825C371.77 213.965 373.46 215.636 374.752 217.839C376.043 220.041 376.689 222.719 376.689 225.871C376.689 228.986 376.043 231.663 374.752 233.904C373.46 236.107 371.77 237.797 369.681 238.975C367.592 240.114 365.352 240.684 362.959 240.684ZM362.959 233.904C364.668 233.904 365.959 233.183 366.833 231.739C367.706 230.258 368.143 228.302 368.143 225.871C368.143 223.403 367.706 221.447 366.833 220.003C365.959 218.56 364.668 217.839 362.959 217.839C361.212 217.839 359.901 218.56 359.028 220.003C358.192 221.447 357.775 223.403 357.775 225.871C357.775 228.302 358.192 230.258 359.028 231.739C359.901 233.183 361.212 233.904 362.959 233.904ZM382.425 240V211.743H389.261L389.831 215.332H390.059C391.274 214.192 392.604 213.205 394.047 212.369C395.528 211.496 397.218 211.059 399.117 211.059C402.194 211.059 404.415 212.085 405.783 214.135C407.188 216.148 407.891 218.921 407.891 222.453V240H399.516V223.536C399.516 221.485 399.231 220.079 398.661 219.32C398.13 218.56 397.256 218.18 396.041 218.18C394.977 218.18 394.066 218.427 393.306 218.921C392.547 219.377 391.711 220.041 390.8 220.915V240H382.425Z" fill="#E85757"/>
</svg>
